<svg width="4000" height="1319" viewBox="0 0 4000 1319" fill="none" xmlns="http://www.w3.org/2000/svg">
	<rect y="635" width="733" height="658" fill="#CB6CE6" />
	<path d="M72.24 750.84H143.92L269.36 1104.12L258.48 1099.64L350 862.84L378.8 946.68L256.56 1232.12L72.24 750.84ZM294.32 750.84H356.4L492.08 1099L479.28 1096.44L598.96 750.84H664.88L483.12 1231.48L294.32 750.84Z" fill="white" />
	<path d="M72.24 750.84V747.84H67.8786L69.4384 751.913L72.24 750.84ZM143.92 750.84L146.747 749.836L146.038 747.84H143.92V750.84ZM269.36 1104.12L268.218 1106.89L274.438 1109.46L272.187 1103.12L269.36 1104.12ZM258.48 1099.64L255.682 1098.56L254.624 1101.3L257.338 1102.41L258.48 1099.64ZM350 862.84L352.837 861.865L350.166 854.089L347.202 861.758L350 862.84ZM378.8 946.68L381.558 947.861L382.013 946.798L381.637 945.705L378.8 946.68ZM256.56 1232.12L253.758 1233.19L256.405 1240.1L259.318 1233.3L256.56 1232.12ZM294.32 750.84V747.84H289.918L291.528 751.937L294.32 750.84ZM356.4 750.84L359.195 749.751L358.451 747.84H356.4V750.84ZM492.08 1099L491.492 1101.94L496.865 1103.02L494.875 1097.91L492.08 1099ZM479.28 1096.44L476.445 1095.46L475.32 1098.71L478.692 1099.38L479.28 1096.44ZM598.96 750.84V747.84H596.824L596.125 749.858L598.96 750.84ZM664.88 750.84L667.686 751.901L669.222 747.84H664.88V750.84ZM483.12 1231.48L480.328 1232.58L483.173 1239.82L485.926 1232.54L483.12 1231.48ZM72.24 753.84H143.92V747.84H72.24V753.84ZM141.093 751.844L266.533 1105.12L272.187 1103.12L146.747 749.836L141.093 751.844ZM270.502 1101.35L259.622 1096.87L257.338 1102.41L268.218 1106.89L270.502 1101.35ZM261.278 1100.72L352.798 863.921L347.202 861.758L255.682 1098.56L261.278 1100.72ZM347.163 863.815L375.963 947.655L381.637 945.705L352.837 861.865L347.163 863.815ZM376.042 945.499L253.802 1230.94L259.318 1233.3L381.558 947.861L376.042 945.499ZM259.362 1231.05L75.0416 749.767L69.4384 751.913L253.758 1233.19L259.362 1231.05ZM294.32 753.84H356.4V747.84H294.32V753.84ZM353.605 751.929L489.285 1100.09L494.875 1097.91L359.195 749.751L353.605 751.929ZM492.668 1096.06L479.868 1093.5L478.692 1099.38L491.492 1101.94L492.668 1096.06ZM482.115 1097.42L601.795 751.822L596.125 749.858L476.445 1095.46L482.115 1097.42ZM598.96 753.84H664.88V747.84H598.96V753.84ZM662.074 749.779L480.314 1230.42L485.926 1232.54L667.686 751.901L662.074 749.779ZM485.912 1230.38L297.112 749.743L291.528 751.937L480.328 1232.58L485.912 1230.38Z" fill="white" />
	<path d="M918.92 1217.4C894.173 1217.4 871.56 1212.07 851.08 1201.4C831.027 1190.73 815.027 1175.16 803.08 1154.68C791.56 1133.77 785.8 1108.39 785.8 1078.52C785.8 1049.08 791.987 1023.69 804.36 1002.36C816.733 980.6 833.16 963.96 853.64 952.44C874.547 940.92 897.373 935.16 922.12 935.16C946.867 935.16 967.773 940.92 984.84 952.44C1001.91 963.533 1014.92 976.76 1023.88 992.12L1020.04 1002.36L1025.8 946.04H1080.84V1211H1021.32V1141.88L1027.72 1157.24C1026.01 1161.51 1022.17 1167.05 1016.2 1173.88C1010.65 1180.28 1002.97 1186.89 993.16 1193.72C983.773 1200.55 972.893 1206.31 960.52 1211C948.147 1215.27 934.28 1217.4 918.92 1217.4ZM934.92 1168.12C949.853 1168.12 963.293 1165.35 975.24 1159.8C987.187 1154.25 997 1146.57 1004.68 1136.76C1012.79 1126.52 1018.33 1114.36 1021.32 1100.28V1048.44C1017.91 1035.64 1011.93 1024.55 1003.4 1015.16C994.867 1005.35 984.627 997.88 972.68 992.76C960.733 987.213 947.507 984.44 933 984.44C917.213 984.44 902.707 988.28 889.48 995.96C876.253 1003.64 865.587 1014.31 857.48 1027.96C849.8 1041.61 845.96 1057.61 845.96 1075.96C845.96 1093.03 850.013 1108.6 858.12 1122.68C866.227 1136.76 877.107 1147.85 890.76 1155.96C904.413 1164.07 919.133 1168.12 934.92 1168.12ZM1196.64 715.64H1256.16V1211H1196.64V715.64ZM1371.94 715.64H1431.46V1211H1371.94V715.64ZM1621.48 1216.12C1602.71 1216.12 1584.36 1212.92 1566.44 1206.52C1548.95 1199.69 1534.44 1189.67 1522.92 1176.44L1547.88 1141.88C1558.97 1152.55 1570.28 1160.65 1581.8 1166.2C1593.75 1171.32 1605.48 1173.88 1617 1173.88C1625.53 1173.88 1633.43 1172.81 1640.68 1170.68C1647.93 1168.55 1653.69 1165.13 1657.96 1160.44C1662.65 1155.32 1665 1148.49 1665 1139.96C1665 1130.57 1661.8 1123.11 1655.4 1117.56C1649.43 1112.01 1641.53 1107.53 1631.72 1104.12C1622.33 1100.71 1612.31 1097.51 1601.64 1094.52C1579.88 1087.27 1563.24 1077.24 1551.72 1064.44C1540.2 1051.64 1534.44 1036.07 1534.44 1017.72C1534.44 1003.64 1537.85 990.627 1544.68 978.68C1551.93 966.307 1562.39 956.28 1576.04 948.6C1590.12 940.92 1607.4 937.08 1627.88 937.08C1646.23 937.08 1662.65 939.427 1677.16 944.12C1691.67 948.387 1705.32 955.64 1718.12 965.88L1694.44 1003C1686.76 994.893 1677.59 988.92 1666.92 985.08C1656.25 981.24 1646.65 979.107 1638.12 978.68C1630.87 978.253 1623.83 979.32 1617 981.88C1610.6 984.44 1605.27 988.067 1601 992.76C1596.73 997.453 1594.6 1003 1594.6 1009.4C1594.6 1018.36 1597.59 1025.61 1603.56 1031.16C1609.53 1036.71 1617.21 1041.19 1626.6 1044.6C1636.41 1047.59 1646.01 1050.79 1655.4 1054.2C1668.63 1058.04 1680.36 1063.16 1690.6 1069.56C1700.84 1075.96 1708.95 1083.85 1714.92 1093.24C1721.32 1102.63 1724.52 1114.36 1724.52 1128.44C1724.52 1144.23 1720.68 1158.95 1713 1172.6C1705.75 1185.83 1694.44 1196.49 1679.08 1204.6C1664.15 1212.28 1644.95 1216.12 1621.48 1216.12ZM1981.95 1217.4C1957.63 1217.4 1936.08 1212.07 1917.31 1201.4C1898.96 1190.73 1884.24 1177.29 1873.15 1161.08L1880.19 1142.52V1211H1820.67V715.64H1879.55V1006.84L1877.63 984.44C1888.29 969.933 1903.44 958.2 1923.07 949.24C1943.12 939.853 1965.31 935.16 1989.63 935.16C2013.52 935.16 2035.28 940.92 2054.91 952.44C2074.53 963.96 2090.11 980.173 2101.63 1001.08C2113.57 1021.56 2119.55 1046.09 2119.55 1074.68C2119.55 1104.55 2113.15 1130.15 2100.35 1151.48C2087.97 1172.81 2071.33 1189.24 2050.43 1200.76C2029.52 1211.85 2006.69 1217.4 1981.95 1217.4ZM1969.79 1166.84C1986.85 1166.84 2002.21 1162.79 2015.87 1154.68C2029.52 1146.57 2040.19 1135.69 2047.87 1122.04C2055.55 1107.96 2059.39 1091.96 2059.39 1074.04C2059.39 1056.97 2055.33 1041.61 2047.23 1027.96C2039.55 1013.88 2028.88 1002.79 2015.23 994.68C2002 986.573 1986.85 982.52 1969.79 982.52C1955.28 982.52 1941.84 985.293 1929.47 990.84C1917.09 996.387 1906.64 1004.07 1898.11 1013.88C1889.57 1023.27 1883.6 1034.36 1880.19 1047.16V1100.28C1883.6 1113.08 1889.36 1124.6 1897.47 1134.84C1905.57 1144.65 1915.81 1152.55 1928.19 1158.52C1940.56 1164.07 1954.43 1166.84 1969.79 1166.84ZM2322.92 1217.4C2298.17 1217.4 2275.56 1212.07 2255.08 1201.4C2235.03 1190.73 2219.03 1175.16 2207.08 1154.68C2195.56 1133.77 2189.8 1108.39 2189.8 1078.52C2189.8 1049.08 2195.99 1023.69 2208.36 1002.36C2220.73 980.6 2237.16 963.96 2257.64 952.44C2278.55 940.92 2301.37 935.16 2326.12 935.16C2350.87 935.16 2371.77 940.92 2388.84 952.44C2405.91 963.533 2418.92 976.76 2427.88 992.12L2424.04 1002.36L2429.8 946.04H2484.84V1211H2425.32V1141.88L2431.72 1157.24C2430.01 1161.51 2426.17 1167.05 2420.2 1173.88C2414.65 1180.28 2406.97 1186.89 2397.16 1193.72C2387.77 1200.55 2376.89 1206.31 2364.52 1211C2352.15 1215.27 2338.28 1217.4 2322.92 1217.4ZM2338.92 1168.12C2353.85 1168.12 2367.29 1165.35 2379.24 1159.8C2391.19 1154.25 2401 1146.57 2408.68 1136.76C2416.79 1126.52 2422.33 1114.36 2425.32 1100.28V1048.44C2421.91 1035.64 2415.93 1024.55 2407.4 1015.16C2398.87 1005.35 2388.63 997.88 2376.68 992.76C2364.73 987.213 2351.51 984.44 2337 984.44C2321.21 984.44 2306.71 988.28 2293.48 995.96C2280.25 1003.64 2269.59 1014.31 2261.48 1027.96C2253.8 1041.61 2249.96 1057.61 2249.96 1075.96C2249.96 1093.03 2254.01 1108.6 2262.12 1122.68C2270.23 1136.76 2281.11 1147.85 2294.76 1155.96C2308.41 1164.07 2323.13 1168.12 2338.92 1168.12ZM2624.96 994.68C2611.73 994.68 2600.43 990.627 2591.04 982.52C2581.65 974.413 2576.96 962.253 2576.96 946.04V921.08H2622.4V929.4C2622.4 936.227 2624.11 940.707 2627.52 942.84C2630.93 944.973 2636.48 946.04 2644.16 946.04H2813.76L2655.04 1174.52L2643.52 1161.72H2811.84V1211H2566.72L2728.64 978.04L2738.88 994.68H2624.96ZM3019.77 1217.4C2995.02 1217.4 2972.41 1212.07 2951.93 1201.4C2931.88 1190.73 2915.88 1175.16 2903.93 1154.68C2892.41 1133.77 2886.65 1108.39 2886.65 1078.52C2886.65 1049.08 2892.84 1023.69 2905.21 1002.36C2917.58 980.6 2934.01 963.96 2954.49 952.44C2975.4 940.92 2998.22 935.16 3022.97 935.16C3047.72 935.16 3068.62 940.92 3085.69 952.44C3102.76 963.533 3115.77 976.76 3124.73 992.12L3120.89 1002.36L3126.65 946.04H3181.69V1211H3122.17V1141.88L3128.57 1157.24C3126.86 1161.51 3123.02 1167.05 3117.05 1173.88C3111.5 1180.28 3103.82 1186.89 3094.01 1193.72C3084.62 1200.55 3073.74 1206.31 3061.37 1211C3049 1215.27 3035.13 1217.4 3019.77 1217.4ZM3035.77 1168.12C3050.7 1168.12 3064.14 1165.35 3076.09 1159.8C3088.04 1154.25 3097.85 1146.57 3105.53 1136.76C3113.64 1126.52 3119.18 1114.36 3122.17 1100.28V1048.44C3118.76 1035.64 3112.78 1024.55 3104.25 1015.16C3095.72 1005.35 3085.48 997.88 3073.53 992.76C3061.58 987.213 3048.36 984.44 3033.85 984.44C3018.06 984.44 3003.56 988.28 2990.33 995.96C2977.1 1003.64 2966.44 1014.31 2958.33 1027.96C2950.65 1041.61 2946.81 1057.61 2946.81 1075.96C2946.81 1093.03 2950.86 1108.6 2958.97 1122.68C2967.08 1136.76 2977.96 1147.85 2991.61 1155.96C3005.26 1164.07 3019.98 1168.12 3035.77 1168.12ZM3407.57 1217.4C3382.82 1217.4 3360.21 1212.07 3339.73 1201.4C3319.68 1190.73 3303.68 1175.16 3291.73 1154.68C3280.21 1133.77 3274.45 1108.39 3274.45 1078.52C3274.45 1049.08 3280.64 1023.69 3293.01 1002.36C3305.38 980.6 3321.81 963.96 3342.29 952.44C3363.2 940.92 3386.02 935.16 3410.77 935.16C3435.52 935.16 3456.42 940.92 3473.49 952.44C3490.56 963.533 3503.57 976.76 3512.53 992.12L3508.69 1002.36L3514.45 946.04H3569.49V1211H3509.97V1141.88L3516.37 1157.24C3514.66 1161.51 3510.82 1167.05 3504.85 1173.88C3499.3 1180.28 3491.62 1186.89 3481.81 1193.72C3472.42 1200.55 3461.54 1206.31 3449.17 1211C3436.8 1215.27 3422.93 1217.4 3407.57 1217.4ZM3423.57 1168.12C3438.5 1168.12 3451.94 1165.35 3463.89 1159.8C3475.84 1154.25 3485.65 1146.57 3493.33 1136.76C3501.44 1126.52 3506.98 1114.36 3509.97 1100.28V1048.44C3506.56 1035.64 3500.58 1024.55 3492.05 1015.16C3483.52 1005.35 3473.28 997.88 3461.33 992.76C3449.38 987.213 3436.16 984.44 3421.65 984.44C3405.86 984.44 3391.36 988.28 3378.13 995.96C3364.9 1003.64 3354.24 1014.31 3346.13 1027.96C3338.45 1041.61 3334.61 1057.61 3334.61 1075.96C3334.61 1093.03 3338.66 1108.6 3346.77 1122.68C3354.88 1136.76 3365.76 1147.85 3379.41 1155.96C3393.06 1164.07 3407.78 1168.12 3423.57 1168.12ZM3738.41 946.04L3744.17 1022.84L3740.97 1012.6C3747.8 996.387 3757.61 982.733 3770.41 971.64C3783.64 960.12 3797.29 951.373 3811.37 945.4C3825.88 939 3838.46 935.8 3849.13 935.8L3845.93 994.68C3825.88 993.4 3808.17 997.24 3792.81 1006.2C3777.88 1015.16 3765.93 1027.11 3756.97 1042.04C3748.44 1056.97 3744.17 1072.97 3744.17 1090.04V1211H3685.29V946.04H3738.41Z" fill="black" />
	<path d="M2897.5 0L3852.29 830.25H1942.71L2897.5 0Z" fill="#CB6CE6" />
</svg>
