<svg width="4089" height="1342" viewBox="0 0 4089 1342" fill="none" xmlns="http://www.w3.org/2000/svg">
<rect y="658" width="733" height="658" fill="#CB6CE6"/>
<path d="M57.68 770.64H144.72L259.92 1100.88L247.76 1095.76L337.36 866L371.92 967.12L243.92 1255.76L57.68 770.64ZM286.16 770.64H359.76L487.76 1093.84L473.04 1091.28L579.28 770.64H659.28L477.52 1254.48L286.16 770.64Z" fill="white"/>
<path d="M57.68 770.64V767.64H53.3148L54.8793 771.715L57.68 770.64ZM144.72 770.64L147.553 769.652L146.851 767.64H144.72V770.64ZM259.92 1100.88L258.756 1103.64L264.975 1106.26L262.753 1099.89L259.92 1100.88ZM247.76 1095.76L244.965 1094.67L243.904 1097.39L246.596 1098.52L247.76 1095.76ZM337.36 866L340.199 865.03L337.546 857.267L334.565 864.91L337.36 866ZM371.92 967.12L374.662 968.336L375.139 967.262L374.759 966.15L371.92 967.12ZM243.92 1255.76L241.119 1256.84L243.72 1263.61L246.662 1256.98L243.92 1255.76ZM286.16 770.64V767.64H281.747L283.37 771.743L286.16 770.64ZM359.76 770.64L362.549 769.535L361.799 767.64H359.76V770.64ZM487.76 1093.84L487.246 1096.8L492.521 1097.71L490.549 1092.74L487.76 1093.84ZM473.04 1091.28L470.192 1090.34L469.098 1093.64L472.526 1094.24L473.04 1091.28ZM579.28 770.64V767.64H577.114L576.432 769.696L579.28 770.64ZM659.28 770.64L662.088 771.695L663.612 767.64H659.28V770.64ZM477.52 1254.48L474.73 1255.58L477.592 1262.82L480.328 1255.53L477.52 1254.48ZM57.68 773.64H144.72V767.64H57.68V773.64ZM141.887 771.628L257.087 1101.87L262.753 1099.89L147.553 769.652L141.887 771.628ZM261.084 1098.12L248.924 1093L246.596 1098.52L258.756 1103.64L261.084 1098.12ZM250.555 1096.85L340.155 867.09L334.565 864.91L244.965 1094.67L250.555 1096.85ZM334.521 866.97L369.081 968.09L374.759 966.15L340.199 865.03L334.521 866.97ZM369.178 965.904L241.178 1254.54L246.662 1256.98L374.662 968.336L369.178 965.904ZM246.721 1254.68L60.4807 769.565L54.8793 771.715L241.119 1256.84L246.721 1254.68ZM286.16 773.64H359.76V767.64H286.16V773.64ZM356.971 771.745L484.971 1094.94L490.549 1092.74L362.549 769.535L356.971 771.745ZM488.274 1090.88L473.554 1088.32L472.526 1094.24L487.246 1096.8L488.274 1090.88ZM475.888 1092.22L582.128 771.584L576.432 769.696L470.192 1090.34L475.888 1092.22ZM579.28 773.64H659.28V767.64H579.28V773.64ZM656.472 769.585L474.712 1253.43L480.328 1255.53L662.088 771.695L656.472 769.585ZM480.31 1253.38L288.95 769.537L283.37 771.743L474.73 1255.58L480.31 1253.38Z" fill="white"/>
<path d="M920.2 1241.04C894.6 1241.04 871.347 1235.71 850.44 1225.04C829.96 1214.37 813.747 1198.59 801.8 1177.68C789.853 1156.35 783.88 1130.11 783.88 1098.96C783.88 1068.24 790.067 1042 802.44 1020.24C815.24 998.053 831.88 980.987 852.36 969.04C873.267 957.093 895.88 951.12 920.2 951.12C946.227 951.12 967.133 956.24 982.92 966.48C999.133 976.72 1011.72 988.88 1020.68 1002.96L1016.84 1013.2L1023.88 963.28H1089.8V1234H1018.12V1168.08L1025.16 1185.36C1023.45 1187.92 1020.04 1192.19 1014.92 1198.16C1009.8 1203.71 1002.76 1209.89 993.8 1216.72C984.84 1223.55 974.173 1229.31 961.8 1234C949.853 1238.69 935.987 1241.04 920.2 1241.04ZM940.04 1182.16C952.84 1182.16 964.36 1179.81 974.6 1175.12C985.267 1170.43 994.227 1163.81 1001.48 1155.28C1009.16 1146.75 1014.71 1136.51 1018.12 1124.56V1065.68C1014.71 1054.59 1009.16 1044.99 1001.48 1036.88C993.8 1028.35 984.413 1021.73 973.32 1017.04C962.653 1012.35 950.707 1010 937.48 1010C922.973 1010 909.533 1013.63 897.16 1020.88C884.787 1028.13 874.76 1038.16 867.08 1050.96C859.827 1063.76 856.2 1078.48 856.2 1095.12C856.2 1111.33 860.04 1126.05 867.72 1139.28C875.4 1152.51 885.64 1162.96 898.44 1170.64C911.24 1178.32 925.107 1182.16 940.04 1182.16ZM1201.58 734.8H1273.26V1234H1201.58V734.8ZM1384.38 734.8H1456.06V1234H1384.38V734.8ZM1648.46 1239.76C1627.98 1239.76 1608.35 1236.13 1589.58 1228.88C1571.23 1221.63 1555.66 1210.96 1542.86 1196.88L1573.58 1156.56C1585.53 1168.08 1597.26 1176.61 1608.78 1182.16C1620.73 1187.28 1632.03 1189.84 1642.7 1189.84C1650.81 1189.84 1658.06 1188.99 1664.46 1187.28C1671.29 1185.15 1676.62 1181.95 1680.46 1177.68C1684.73 1173.41 1686.86 1167.65 1686.86 1160.4C1686.86 1151.87 1683.87 1145.25 1677.9 1140.56C1671.93 1135.44 1664.25 1131.39 1654.86 1128.4C1645.47 1124.99 1635.66 1121.79 1625.42 1118.8C1601.95 1111.55 1584.46 1100.88 1572.94 1086.8C1561.42 1072.72 1555.66 1056.51 1555.66 1038.16C1555.66 1024.08 1559.29 1010.64 1566.54 997.84C1573.79 984.613 1584.89 973.733 1599.82 965.2C1614.75 956.667 1633.53 952.4 1656.14 952.4C1676.62 952.4 1694.33 954.747 1709.26 959.44C1724.62 963.707 1738.91 971.173 1752.14 981.84L1724.62 1024.72C1716.94 1017.47 1707.77 1011.92 1697.1 1008.08C1686.86 1003.81 1677.47 1001.47 1668.94 1001.04C1661.26 1000.61 1654.43 1001.68 1648.46 1004.24C1642.49 1006.37 1637.58 1009.57 1633.74 1013.84C1630.33 1018.11 1628.62 1023.01 1628.62 1028.56C1628.19 1037.09 1630.97 1043.92 1636.94 1049.04C1643.34 1054.16 1651.45 1058.21 1661.26 1061.2C1671.07 1064.19 1680.89 1067.39 1690.7 1070.8C1703.93 1074.64 1715.66 1079.97 1725.9 1086.8C1736.14 1093.63 1744.03 1101.95 1749.58 1111.76C1755.55 1121.15 1758.54 1132.88 1758.54 1146.96C1758.54 1163.17 1754.49 1178.53 1746.38 1193.04C1738.27 1207.12 1726.11 1218.43 1709.9 1226.96C1693.69 1235.49 1673.21 1239.76 1648.46 1239.76ZM2021.48 1241.04C1997.16 1241.04 1976.26 1236.35 1958.76 1226.96C1941.27 1217.15 1926.98 1204.77 1915.88 1189.84L1922.28 1171.28V1234H1850.6V734.8H1922.28V1018.96L1921 993.36C1931.67 980.987 1946.6 970.96 1965.8 963.28C1985 955.173 2006.76 951.12 2031.08 951.12C2054.98 951.12 2076.74 956.88 2096.36 968.4C2116.42 979.493 2132.42 995.707 2144.36 1017.04C2156.31 1038.37 2162.28 1063.97 2162.28 1093.84C2162.28 1124.13 2155.67 1150.37 2142.44 1172.56C2129.64 1194.75 2112.36 1211.81 2090.6 1223.76C2069.27 1235.28 2046.23 1241.04 2021.48 1241.04ZM2006.12 1180.24C2021.48 1180.24 2035.35 1176.61 2047.72 1169.36C2060.52 1161.68 2070.55 1151.23 2077.8 1138C2085.48 1124.77 2089.32 1109.84 2089.32 1093.2C2089.32 1076.99 2085.48 1062.48 2077.8 1049.68C2070.55 1036.88 2060.52 1026.85 2047.72 1019.6C2035.35 1011.92 2021.48 1008.08 2006.12 1008.08C1992.47 1008.08 1979.88 1010.43 1968.36 1015.12C1957.27 1019.81 1947.67 1026.43 1939.56 1034.96C1931.88 1043.07 1926.12 1052.67 1922.28 1063.76V1123.92C1926.55 1135.01 1932.52 1144.83 1940.2 1153.36C1947.88 1161.89 1957.27 1168.51 1968.36 1173.2C1979.88 1177.89 1992.47 1180.24 2006.12 1180.24ZM2364.83 1241.04C2339.23 1241.04 2315.97 1235.71 2295.07 1225.04C2274.59 1214.37 2258.37 1198.59 2246.43 1177.68C2234.48 1156.35 2228.51 1130.11 2228.51 1098.96C2228.51 1068.24 2234.69 1042 2247.07 1020.24C2259.87 998.053 2276.51 980.987 2296.99 969.04C2317.89 957.093 2340.51 951.12 2364.83 951.12C2390.85 951.12 2411.76 956.24 2427.55 966.48C2443.76 976.72 2456.35 988.88 2465.31 1002.96L2461.47 1013.2L2468.51 963.28H2534.43V1234H2462.75V1168.08L2469.79 1185.36C2468.08 1187.92 2464.67 1192.19 2459.55 1198.16C2454.43 1203.71 2447.39 1209.89 2438.43 1216.72C2429.47 1223.55 2418.8 1229.31 2406.43 1234C2394.48 1238.69 2380.61 1241.04 2364.83 1241.04ZM2384.67 1182.16C2397.47 1182.16 2408.99 1179.81 2419.23 1175.12C2429.89 1170.43 2438.85 1163.81 2446.11 1155.28C2453.79 1146.75 2459.33 1136.51 2462.75 1124.56V1065.68C2459.33 1054.59 2453.79 1044.99 2446.11 1036.88C2438.43 1028.35 2429.04 1021.73 2417.95 1017.04C2407.28 1012.35 2395.33 1010 2382.11 1010C2367.6 1010 2354.16 1013.63 2341.79 1020.88C2329.41 1028.13 2319.39 1038.16 2311.71 1050.96C2304.45 1063.76 2300.83 1078.48 2300.83 1095.12C2300.83 1111.33 2304.67 1126.05 2312.35 1139.28C2320.03 1152.51 2330.27 1162.96 2343.07 1170.64C2355.87 1178.32 2369.73 1182.16 2384.67 1182.16ZM2678.85 1021.52C2664.77 1021.52 2652.61 1016.83 2642.37 1007.44C2632.13 998.053 2627.01 984.827 2627.01 967.76V937.04H2680.77V946C2680.77 953.68 2682.47 958.587 2685.89 960.72C2689.3 962.427 2694.85 963.28 2702.53 963.28H2875.33L2718.53 1189.84L2704.45 1175.12H2873.41V1234H2612.93L2773.57 1001.04L2785.09 1021.52H2678.85ZM3084.8 1241.04C3059.2 1241.04 3035.95 1235.71 3015.04 1225.04C2994.56 1214.37 2978.35 1198.59 2966.4 1177.68C2954.45 1156.35 2948.48 1130.11 2948.48 1098.96C2948.48 1068.24 2954.67 1042 2967.04 1020.24C2979.84 998.053 2996.48 980.987 3016.96 969.04C3037.87 957.093 3060.48 951.12 3084.8 951.12C3110.83 951.12 3131.73 956.24 3147.52 966.48C3163.73 976.72 3176.32 988.88 3185.28 1002.96L3181.44 1013.2L3188.48 963.28H3254.4V1234H3182.72V1168.08L3189.76 1185.36C3188.05 1187.92 3184.64 1192.19 3179.52 1198.16C3174.4 1203.71 3167.36 1209.89 3158.4 1216.72C3149.44 1223.55 3138.77 1229.31 3126.4 1234C3114.45 1238.69 3100.59 1241.04 3084.8 1241.04ZM3104.64 1182.16C3117.44 1182.16 3128.96 1179.81 3139.2 1175.12C3149.87 1170.43 3158.83 1163.81 3166.08 1155.28C3173.76 1146.75 3179.31 1136.51 3182.72 1124.56V1065.68C3179.31 1054.59 3173.76 1044.99 3166.08 1036.88C3158.4 1028.35 3149.01 1021.73 3137.92 1017.04C3127.25 1012.35 3115.31 1010 3102.08 1010C3087.57 1010 3074.13 1013.63 3061.76 1020.88C3049.39 1028.13 3039.36 1038.16 3031.68 1050.96C3024.43 1063.76 3020.8 1078.48 3020.8 1095.12C3020.8 1111.33 3024.64 1126.05 3032.32 1139.28C3040 1152.51 3050.24 1162.96 3063.04 1170.64C3075.84 1178.32 3089.71 1182.16 3104.64 1182.16ZM3480.1 1241.04C3454.5 1241.04 3431.25 1235.71 3410.34 1225.04C3389.86 1214.37 3373.65 1198.59 3361.7 1177.68C3349.75 1156.35 3343.78 1130.11 3343.78 1098.96C3343.78 1068.24 3349.97 1042 3362.34 1020.24C3375.14 998.053 3391.78 980.987 3412.26 969.04C3433.17 957.093 3455.78 951.12 3480.1 951.12C3506.13 951.12 3527.03 956.24 3542.82 966.48C3559.03 976.72 3571.62 988.88 3580.58 1002.96L3576.74 1013.2L3583.78 963.28H3649.7V1234H3578.02V1168.08L3585.06 1185.36C3583.35 1187.92 3579.94 1192.19 3574.82 1198.16C3569.7 1203.71 3562.66 1209.89 3553.7 1216.72C3544.74 1223.55 3534.07 1229.31 3521.7 1234C3509.75 1238.69 3495.89 1241.04 3480.1 1241.04ZM3499.94 1182.16C3512.74 1182.16 3524.26 1179.81 3534.5 1175.12C3545.17 1170.43 3554.13 1163.81 3561.38 1155.28C3569.06 1146.75 3574.61 1136.51 3578.02 1124.56V1065.68C3574.61 1054.59 3569.06 1044.99 3561.38 1036.88C3553.7 1028.35 3544.31 1021.73 3533.22 1017.04C3522.55 1012.35 3510.61 1010 3497.38 1010C3482.87 1010 3469.43 1013.63 3457.06 1020.88C3444.69 1028.13 3434.66 1038.16 3426.98 1050.96C3419.73 1063.76 3416.1 1078.48 3416.1 1095.12C3416.1 1111.33 3419.94 1126.05 3427.62 1139.28C3435.3 1152.51 3445.54 1162.96 3458.34 1170.64C3471.14 1178.32 3485.01 1182.16 3499.94 1182.16ZM3826.12 963.28L3832.52 1040.08L3829.96 1029.2C3837.64 1012.99 3848.09 999.12 3861.32 987.6C3874.97 975.653 3888.84 966.693 3902.92 960.72C3917 954.32 3928.52 951.12 3937.48 951.12L3934.28 1022.8C3913.8 1021.09 3895.88 1024.93 3880.52 1034.32C3865.59 1043.28 3853.85 1055.23 3845.32 1070.16C3837.21 1085.09 3833.16 1100.88 3833.16 1117.52V1234H3761.48V963.28H3826.12Z" fill="white"/>
<path d="M2999 0L3942.97 847.5H2055.03L2999 0Z" fill="#CB6CE6"/>
</svg>
