<svg width="4551" height="4551" viewBox="0 0 4551 4551" fill="none" xmlns="http://www.w3.org/2000/svg">
<rect x="61" y="1934" width="948" height="658" fill="#CB6CE6"/>
<path d="M348.24 2049.84H419.92L545.36 2403.12L534.48 2398.64L626 2161.84L654.8 2245.68L532.56 2531.12L348.24 2049.84ZM570.32 2049.84H632.4L768.08 2398L755.28 2395.44L874.96 2049.84H940.88L759.12 2530.48L570.32 2049.84Z" fill="white"/>
<path d="M348.24 2049.84V2046.84H343.879L345.438 2050.91L348.24 2049.84ZM419.92 2049.84L422.747 2048.84L422.038 2046.84H419.92V2049.84ZM545.36 2403.12L544.218 2405.89L550.438 2408.46L548.187 2402.12L545.36 2403.12ZM534.48 2398.64L531.682 2397.56L530.624 2400.3L533.338 2401.41L534.48 2398.64ZM626 2161.84L628.837 2160.87L626.166 2153.09L623.202 2160.76L626 2161.84ZM654.8 2245.68L657.558 2246.86L658.013 2245.8L657.637 2244.71L654.8 2245.68ZM532.56 2531.12L529.758 2532.19L532.405 2539.1L535.318 2532.3L532.56 2531.12ZM570.32 2049.84V2046.84H565.918L567.528 2050.94L570.32 2049.84ZM632.4 2049.84L635.195 2048.75L634.451 2046.84H632.4V2049.84ZM768.08 2398L767.492 2400.94L772.865 2402.02L770.875 2396.91L768.08 2398ZM755.28 2395.44L752.445 2394.46L751.32 2397.71L754.692 2398.38L755.28 2395.44ZM874.96 2049.84V2046.84H872.824L872.125 2048.86L874.96 2049.84ZM940.88 2049.84L943.686 2050.9L945.222 2046.84H940.88V2049.84ZM759.12 2530.48L756.328 2531.58L759.173 2538.82L761.926 2531.54L759.12 2530.48ZM348.24 2052.84H419.92V2046.84H348.24V2052.84ZM417.093 2050.84L542.533 2404.12L548.187 2402.12L422.747 2048.84L417.093 2050.84ZM546.502 2400.35L535.622 2395.87L533.338 2401.41L544.218 2405.89L546.502 2400.35ZM537.278 2399.72L628.798 2162.92L623.202 2160.76L531.682 2397.56L537.278 2399.72ZM623.163 2162.81L651.963 2246.65L657.637 2244.71L628.837 2160.87L623.163 2162.81ZM652.042 2244.5L529.802 2529.94L535.318 2532.3L657.558 2246.86L652.042 2244.5ZM535.362 2530.05L351.042 2048.77L345.438 2050.91L529.758 2532.19L535.362 2530.05ZM570.32 2052.84H632.4V2046.84H570.32V2052.84ZM629.605 2050.93L765.285 2399.09L770.875 2396.91L635.195 2048.75L629.605 2050.93ZM768.668 2395.06L755.868 2392.5L754.692 2398.38L767.492 2400.94L768.668 2395.06ZM758.115 2396.42L877.795 2050.82L872.125 2048.86L752.445 2394.46L758.115 2396.42ZM874.96 2052.84H940.88V2046.84H874.96V2052.84ZM938.074 2048.78L756.314 2529.42L761.926 2531.54L943.686 2050.9L938.074 2048.78ZM761.912 2529.38L573.112 2048.74L567.528 2050.94L756.328 2531.58L761.912 2529.38Z" fill="white"/>
<path d="M1194.92 2516.4C1170.17 2516.4 1147.56 2511.07 1127.08 2500.4C1107.03 2489.73 1091.03 2474.16 1079.08 2453.68C1067.56 2432.77 1061.8 2407.39 1061.8 2377.52C1061.8 2348.08 1067.99 2322.69 1080.36 2301.36C1092.73 2279.6 1109.16 2262.96 1129.64 2251.44C1150.55 2239.92 1173.37 2234.16 1198.12 2234.16C1222.87 2234.16 1243.77 2239.92 1260.84 2251.44C1277.91 2262.53 1290.92 2275.76 1299.88 2291.12L1296.04 2301.36L1301.8 2245.04H1356.84V2510H1297.32V2440.88L1303.72 2456.24C1302.01 2460.51 1298.17 2466.05 1292.2 2472.88C1286.65 2479.28 1278.97 2485.89 1269.16 2492.72C1259.77 2499.55 1248.89 2505.31 1236.52 2510C1224.15 2514.27 1210.28 2516.4 1194.92 2516.4ZM1210.92 2467.12C1225.85 2467.12 1239.29 2464.35 1251.24 2458.8C1263.19 2453.25 1273 2445.57 1280.68 2435.76C1288.79 2425.52 1294.33 2413.36 1297.32 2399.28V2347.44C1293.91 2334.64 1287.93 2323.55 1279.4 2314.16C1270.87 2304.35 1260.63 2296.88 1248.68 2291.76C1236.73 2286.21 1223.51 2283.44 1209 2283.44C1193.21 2283.44 1178.71 2287.28 1165.48 2294.96C1152.25 2302.64 1141.59 2313.31 1133.48 2326.96C1125.8 2340.61 1121.96 2356.61 1121.96 2374.96C1121.96 2392.03 1126.01 2407.6 1134.12 2421.68C1142.23 2435.76 1153.11 2446.85 1166.76 2454.96C1180.41 2463.07 1195.13 2467.12 1210.92 2467.12ZM1472.64 2014.64H1532.16V2510H1472.64V2014.64ZM1647.94 2014.64H1707.46V2510H1647.94V2014.64ZM1897.48 2515.12C1878.71 2515.12 1860.36 2511.92 1842.44 2505.52C1824.95 2498.69 1810.44 2488.67 1798.92 2475.44L1823.88 2440.88C1834.97 2451.55 1846.28 2459.65 1857.8 2465.2C1869.75 2470.32 1881.48 2472.88 1893 2472.88C1901.53 2472.88 1909.43 2471.81 1916.68 2469.68C1923.93 2467.55 1929.69 2464.13 1933.96 2459.44C1938.65 2454.32 1941 2447.49 1941 2438.96C1941 2429.57 1937.8 2422.11 1931.4 2416.56C1925.43 2411.01 1917.53 2406.53 1907.72 2403.12C1898.33 2399.71 1888.31 2396.51 1877.64 2393.52C1855.88 2386.27 1839.24 2376.24 1827.72 2363.44C1816.2 2350.64 1810.44 2335.07 1810.44 2316.72C1810.44 2302.64 1813.85 2289.63 1820.68 2277.68C1827.93 2265.31 1838.39 2255.28 1852.04 2247.6C1866.12 2239.92 1883.4 2236.08 1903.88 2236.08C1922.23 2236.08 1938.65 2238.43 1953.16 2243.12C1967.67 2247.39 1981.32 2254.64 1994.12 2264.88L1970.44 2302C1962.76 2293.89 1953.59 2287.92 1942.92 2284.08C1932.25 2280.24 1922.65 2278.11 1914.12 2277.68C1906.87 2277.25 1899.83 2278.32 1893 2280.88C1886.6 2283.44 1881.27 2287.07 1877 2291.76C1872.73 2296.45 1870.6 2302 1870.6 2308.4C1870.6 2317.36 1873.59 2324.61 1879.56 2330.16C1885.53 2335.71 1893.21 2340.19 1902.6 2343.6C1912.41 2346.59 1922.01 2349.79 1931.4 2353.2C1944.63 2357.04 1956.36 2362.16 1966.6 2368.56C1976.84 2374.96 1984.95 2382.85 1990.92 2392.24C1997.32 2401.63 2000.52 2413.36 2000.52 2427.44C2000.52 2443.23 1996.68 2457.95 1989 2471.6C1981.75 2484.83 1970.44 2495.49 1955.08 2503.6C1940.15 2511.28 1920.95 2515.12 1897.48 2515.12ZM2257.95 2516.4C2233.63 2516.4 2212.08 2511.07 2193.31 2500.4C2174.96 2489.73 2160.24 2476.29 2149.15 2460.08L2156.19 2441.52V2510H2096.67V2014.64H2155.55V2305.84L2153.63 2283.44C2164.29 2268.93 2179.44 2257.2 2199.07 2248.24C2219.12 2238.85 2241.31 2234.16 2265.63 2234.16C2289.52 2234.16 2311.28 2239.92 2330.91 2251.44C2350.53 2262.96 2366.11 2279.17 2377.63 2300.08C2389.57 2320.56 2395.55 2345.09 2395.55 2373.68C2395.55 2403.55 2389.15 2429.15 2376.35 2450.48C2363.97 2471.81 2347.33 2488.24 2326.43 2499.76C2305.52 2510.85 2282.69 2516.4 2257.95 2516.4ZM2245.79 2465.84C2262.85 2465.84 2278.21 2461.79 2291.87 2453.68C2305.52 2445.57 2316.19 2434.69 2323.87 2421.04C2331.55 2406.96 2335.39 2390.96 2335.39 2373.04C2335.39 2355.97 2331.33 2340.61 2323.23 2326.96C2315.55 2312.88 2304.88 2301.79 2291.23 2293.68C2278 2285.57 2262.85 2281.52 2245.79 2281.52C2231.28 2281.52 2217.84 2284.29 2205.47 2289.84C2193.09 2295.39 2182.64 2303.07 2174.11 2312.88C2165.57 2322.27 2159.6 2333.36 2156.19 2346.16V2399.28C2159.6 2412.08 2165.36 2423.6 2173.47 2433.84C2181.57 2443.65 2191.81 2451.55 2204.19 2457.52C2216.56 2463.07 2230.43 2465.84 2245.79 2465.84ZM2598.92 2516.4C2574.17 2516.4 2551.56 2511.07 2531.08 2500.4C2511.03 2489.73 2495.03 2474.16 2483.08 2453.68C2471.56 2432.77 2465.8 2407.39 2465.8 2377.52C2465.8 2348.08 2471.99 2322.69 2484.36 2301.36C2496.73 2279.6 2513.16 2262.96 2533.64 2251.44C2554.55 2239.92 2577.37 2234.16 2602.12 2234.16C2626.87 2234.16 2647.77 2239.92 2664.84 2251.44C2681.91 2262.53 2694.92 2275.76 2703.88 2291.12L2700.04 2301.36L2705.8 2245.04H2760.84V2510H2701.32V2440.88L2707.72 2456.24C2706.01 2460.51 2702.17 2466.05 2696.2 2472.88C2690.65 2479.28 2682.97 2485.89 2673.16 2492.72C2663.77 2499.55 2652.89 2505.31 2640.52 2510C2628.15 2514.27 2614.28 2516.4 2598.92 2516.4ZM2614.92 2467.12C2629.85 2467.12 2643.29 2464.35 2655.24 2458.8C2667.19 2453.25 2677 2445.57 2684.68 2435.76C2692.79 2425.52 2698.33 2413.36 2701.32 2399.28V2347.44C2697.91 2334.64 2691.93 2323.55 2683.4 2314.16C2674.87 2304.35 2664.63 2296.88 2652.68 2291.76C2640.73 2286.21 2627.51 2283.44 2613 2283.44C2597.21 2283.44 2582.71 2287.28 2569.48 2294.96C2556.25 2302.64 2545.59 2313.31 2537.48 2326.96C2529.8 2340.61 2525.96 2356.61 2525.96 2374.96C2525.96 2392.03 2530.01 2407.6 2538.12 2421.68C2546.23 2435.76 2557.11 2446.85 2570.76 2454.96C2584.41 2463.07 2599.13 2467.12 2614.92 2467.12ZM2900.96 2293.68C2887.73 2293.68 2876.43 2289.63 2867.04 2281.52C2857.65 2273.41 2852.96 2261.25 2852.96 2245.04V2220.08H2898.4V2228.4C2898.4 2235.23 2900.11 2239.71 2903.52 2241.84C2906.93 2243.97 2912.48 2245.04 2920.16 2245.04H3089.76L2931.04 2473.52L2919.52 2460.72H3087.84V2510H2842.72L3004.64 2277.04L3014.88 2293.68H2900.96ZM3295.77 2516.4C3271.02 2516.4 3248.41 2511.07 3227.93 2500.4C3207.88 2489.73 3191.88 2474.16 3179.93 2453.68C3168.41 2432.77 3162.65 2407.39 3162.65 2377.52C3162.65 2348.08 3168.84 2322.69 3181.21 2301.36C3193.58 2279.6 3210.01 2262.96 3230.49 2251.44C3251.4 2239.92 3274.22 2234.16 3298.97 2234.16C3323.72 2234.16 3344.62 2239.92 3361.69 2251.44C3378.76 2262.53 3391.77 2275.76 3400.73 2291.12L3396.89 2301.36L3402.65 2245.04H3457.69V2510H3398.17V2440.88L3404.57 2456.24C3402.86 2460.51 3399.02 2466.05 3393.05 2472.88C3387.5 2479.28 3379.82 2485.89 3370.01 2492.72C3360.62 2499.55 3349.74 2505.31 3337.37 2510C3325 2514.27 3311.13 2516.4 3295.77 2516.4ZM3311.77 2467.12C3326.7 2467.12 3340.14 2464.35 3352.09 2458.8C3364.04 2453.25 3373.85 2445.57 3381.53 2435.76C3389.64 2425.52 3395.18 2413.36 3398.17 2399.28V2347.44C3394.76 2334.64 3388.78 2323.55 3380.25 2314.16C3371.72 2304.35 3361.48 2296.88 3349.53 2291.76C3337.58 2286.21 3324.36 2283.44 3309.85 2283.44C3294.06 2283.44 3279.56 2287.28 3266.33 2294.96C3253.1 2302.64 3242.44 2313.31 3234.33 2326.96C3226.65 2340.61 3222.81 2356.61 3222.81 2374.96C3222.81 2392.03 3226.86 2407.6 3234.97 2421.68C3243.08 2435.76 3253.96 2446.85 3267.61 2454.96C3281.26 2463.07 3295.98 2467.12 3311.77 2467.12ZM3683.57 2516.4C3658.82 2516.4 3636.21 2511.07 3615.73 2500.4C3595.68 2489.73 3579.68 2474.16 3567.73 2453.68C3556.21 2432.77 3550.45 2407.39 3550.45 2377.52C3550.45 2348.08 3556.64 2322.69 3569.01 2301.36C3581.38 2279.6 3597.81 2262.96 3618.29 2251.44C3639.2 2239.92 3662.02 2234.16 3686.77 2234.16C3711.52 2234.16 3732.42 2239.92 3749.49 2251.44C3766.56 2262.53 3779.57 2275.76 3788.53 2291.12L3784.69 2301.36L3790.45 2245.04H3845.49V2510H3785.97V2440.88L3792.37 2456.24C3790.66 2460.51 3786.82 2466.05 3780.85 2472.88C3775.3 2479.28 3767.62 2485.89 3757.81 2492.72C3748.42 2499.55 3737.54 2505.31 3725.17 2510C3712.8 2514.27 3698.93 2516.4 3683.57 2516.4ZM3699.57 2467.12C3714.5 2467.12 3727.94 2464.35 3739.89 2458.8C3751.84 2453.25 3761.65 2445.57 3769.33 2435.76C3777.44 2425.52 3782.98 2413.36 3785.97 2399.28V2347.44C3782.56 2334.64 3776.58 2323.55 3768.05 2314.16C3759.52 2304.35 3749.28 2296.88 3737.33 2291.76C3725.38 2286.21 3712.16 2283.44 3697.65 2283.44C3681.86 2283.44 3667.36 2287.28 3654.13 2294.96C3640.9 2302.64 3630.24 2313.31 3622.13 2326.96C3614.45 2340.61 3610.61 2356.61 3610.61 2374.96C3610.61 2392.03 3614.66 2407.6 3622.77 2421.68C3630.88 2435.76 3641.76 2446.85 3655.41 2454.96C3669.06 2463.07 3683.78 2467.12 3699.57 2467.12ZM4014.41 2245.04L4020.17 2321.84L4016.97 2311.6C4023.8 2295.39 4033.61 2281.73 4046.41 2270.64C4059.64 2259.12 4073.29 2250.37 4087.37 2244.4C4101.88 2238 4114.46 2234.8 4125.13 2234.8L4121.93 2293.68C4101.88 2292.4 4084.17 2296.24 4068.81 2305.2C4053.88 2314.16 4041.93 2326.11 4032.97 2341.04C4024.44 2355.97 4020.17 2371.97 4020.17 2389.04V2510H3961.29V2245.04H4014.41Z" fill="black"/>
<path d="M3173.5 1299L4128.29 2129.25H2218.71L3173.5 1299Z" fill="#CB6CE6"/>
<circle cx="2275.5" cy="2275.5" r="2200.5" stroke="#CB6CE6" stroke-width="150"/>
</svg>
